<mxfile host="65bd71144e">
    <diagram id="17lF7lhxjiBr7xkFxP51" name="Page-1">
        <mxGraphModel dx="965" dy="902" grid="1" gridSize="10" guides="1" tooltips="1" connect="1" arrows="1" fold="1" page="1" pageScale="1" pageWidth="827" pageHeight="1169" math="0" shadow="0">
            <root>
                <mxCell id="0"/>
                <mxCell id="1" parent="0"/>
                <mxCell id="2" value="controller" style="shape=folder;fontStyle=1;tabWidth=110;tabHeight=30;tabPosition=left;html=1;boundedLbl=1;labelInHeader=1;container=1;collapsible=0;recursiveResize=0;" parent="1" vertex="1">
                    <mxGeometry x="310" y="350" width="200" height="480" as="geometry"/>
                </mxCell>
                <mxCell id="3" value="&amp;lt;&amp;lt;Interface&amp;gt;&amp;gt;&lt;br&gt;ScannerController" style="swimlane;fontStyle=1;align=center;verticalAlign=middle;childLayout=stackLayout;horizontal=1;startSize=40;horizontalStack=0;resizeParent=1;resizeParentMax=0;resizeLast=0;collapsible=0;marginBottom=0;html=1;" parent="2" vertex="1">
                    <mxGeometry x="34.5" y="43" width="137" height="71" as="geometry"/>
                </mxCell>
                <mxCell id="4" value="+start()&lt;br&gt;+stop()" style="text;html=1;strokeColor=none;fillColor=none;align=left;verticalAlign=middle;spacingLeft=4;spacingRight=4;overflow=hidden;rotatable=0;points=[[0,0.5],[1,0.5]];portConstraint=eastwest;" parent="3" vertex="1">
                    <mxGeometry y="40" width="137" height="31" as="geometry"/>
                </mxCell>
                <mxCell id="7" value="SerialScannerController" style="swimlane;fontStyle=1;align=center;verticalAlign=middle;childLayout=stackLayout;horizontal=1;startSize=29;horizontalStack=0;resizeParent=1;resizeParentMax=0;resizeLast=0;collapsible=0;marginBottom=0;html=1;" parent="2" vertex="1">
                    <mxGeometry x="18" y="195" width="170" height="36" as="geometry"/>
                </mxCell>
                <mxCell id="10" style="edgeStyle=orthogonalEdgeStyle;html=1;dashed=1;endArrow=block;endFill=0;exitX=0.5;exitY=0;exitDx=0;exitDy=0;" parent="2" source="7" edge="1">
                    <mxGeometry relative="1" as="geometry">
                        <mxPoint x="98" y="116" as="targetPoint"/>
                        <Array as="points">
                            <mxPoint x="98" y="195"/>
                        </Array>
                        <mxPoint x="313.0000000000002" y="196" as="sourcePoint"/>
                    </mxGeometry>
                </mxCell>
                <mxCell id="11" value="&amp;lt;&amp;lt;Interface&amp;gt;&amp;gt;&lt;br&gt;ButtonController" style="swimlane;fontStyle=1;align=center;verticalAlign=middle;childLayout=stackLayout;horizontal=1;startSize=40;horizontalStack=0;resizeParent=1;resizeParentMax=0;resizeLast=0;collapsible=0;marginBottom=0;html=1;" parent="2" vertex="1">
                    <mxGeometry x="34.5" y="281" width="137" height="71" as="geometry"/>
                </mxCell>
                <mxCell id="12" value="+start()&lt;br&gt;+stop()" style="text;html=1;strokeColor=none;fillColor=none;align=left;verticalAlign=middle;spacingLeft=4;spacingRight=4;overflow=hidden;rotatable=0;points=[[0,0.5],[1,0.5]];portConstraint=eastwest;" parent="11" vertex="1">
                    <mxGeometry y="40" width="137" height="31" as="geometry"/>
                </mxCell>
                <mxCell id="25" value="Pi4jButtonController" style="swimlane;fontStyle=1;align=center;verticalAlign=middle;childLayout=stackLayout;horizontal=1;startSize=29;horizontalStack=0;resizeParent=1;resizeParentMax=0;resizeLast=0;collapsible=0;marginBottom=0;html=1;" parent="2" vertex="1">
                    <mxGeometry x="18" y="430" width="170" height="36" as="geometry"/>
                </mxCell>
                <mxCell id="26" style="edgeStyle=orthogonalEdgeStyle;html=1;dashed=1;endArrow=block;endFill=0;exitX=0.5;exitY=0;exitDx=0;exitDy=0;" parent="2" source="25" edge="1">
                    <mxGeometry relative="1" as="geometry">
                        <mxPoint x="98" y="351" as="targetPoint"/>
                        <Array as="points">
                            <mxPoint x="98" y="430"/>
                        </Array>
                        <mxPoint x="3.0000000000002274" y="81" as="sourcePoint"/>
                    </mxGeometry>
                </mxCell>
                <mxCell id="13" value="controller" style="shape=folder;fontStyle=1;tabWidth=110;tabHeight=30;tabPosition=left;html=1;boundedLbl=1;labelInHeader=1;container=1;collapsible=0;recursiveResize=0;" parent="1" vertex="1">
                    <mxGeometry x="550" y="370" width="310" height="120" as="geometry"/>
                </mxCell>
                <mxCell id="22" value="&amp;lt;&amp;lt;Interface&amp;gt;&amp;gt;&lt;br&gt;ButtonController" style="swimlane;fontStyle=1;align=center;verticalAlign=middle;childLayout=stackLayout;horizontal=1;startSize=40;horizontalStack=0;resizeParent=1;resizeParentMax=0;resizeLast=0;collapsible=0;marginBottom=0;html=1;" parent="13" vertex="1">
                    <mxGeometry x="160" y="35" width="137" height="71" as="geometry"/>
                </mxCell>
                <mxCell id="23" value="+start()&lt;br&gt;+stop()" style="text;html=1;strokeColor=none;fillColor=none;align=left;verticalAlign=middle;spacingLeft=4;spacingRight=4;overflow=hidden;rotatable=0;points=[[0,0.5],[1,0.5]];portConstraint=eastwest;" parent="22" vertex="1">
                    <mxGeometry y="40" width="137" height="31" as="geometry"/>
                </mxCell>
                <mxCell id="14" value="&amp;lt;&amp;lt;Interface&amp;gt;&amp;gt;&lt;br&gt;ScannerController" style="swimlane;fontStyle=1;align=center;verticalAlign=middle;childLayout=stackLayout;horizontal=1;startSize=40;horizontalStack=0;resizeParent=1;resizeParentMax=0;resizeLast=0;collapsible=0;marginBottom=0;html=1;" parent="13" vertex="1">
                    <mxGeometry x="10" y="35" width="137" height="71" as="geometry"/>
                </mxCell>
                <mxCell id="15" value="+start()&lt;br&gt;+stop()" style="text;html=1;strokeColor=none;fillColor=none;align=left;verticalAlign=middle;spacingLeft=4;spacingRight=4;overflow=hidden;rotatable=0;points=[[0,0.5],[1,0.5]];portConstraint=eastwest;" parent="14" vertex="1">
                    <mxGeometry y="40" width="137" height="31" as="geometry"/>
                </mxCell>
            </root>
        </mxGraphModel>
    </diagram>
</mxfile>